<svg id="Layer_1" data-name="Layer 1" xmlns="http://www.w3.org/2000/svg" viewBox="0 0 3300 2200"><defs><style>.cls-1{fill:#fff;}.cls-11,.cls-2,.cls-7{fill:none;stroke-width:0.5px;}.cls-2{stroke:#000;}.cls-3,.cls-6{isolation:isolate;font-size:13px;}.cls-3{font-family:Helvetica-Bold, Helvetica;font-weight:700;}.cls-4{letter-spacing:-0.02em;}.cls-5{letter-spacing:-0.05em;}.cls-6{font-family:Helvetica;}.cls-7{stroke:#00aeef;}.cls-8{letter-spacing:-0.11em;}.cls-9{letter-spacing:-0.07em;}.cls-10{fill:#27aae1;}.cls-11{stroke:#27aae1;}</style></defs><g id="Notes"><rect id="artboard" class="cls-1" x="4.26" y="19.14" width="3300" height="2200"/><line class="cls-2" x1="267.26" y1="311.14" x2="3040.26" y2="311.14"/><text class="cls-3" transform="translate(267.26 341.14)"><tspan class="cls-4">W</tspan><tspan x="12.04" y="0">eight/Scale </tspan><tspan class="cls-5" x="84.29" y="0">V</tspan><tspan x="92.25" y="0">ariations</tspan></text><text class="cls-6" transform="translate(538.32 341.14)">Ultralight</text><text class="cls-6" transform="translate(848.03 341.14)">Thin</text><text class="cls-6" transform="translate(1143.29 341.14)">Light</text><text class="cls-6" transform="translate(1431.33 341.14)">Regular</text><text class="cls-6" transform="translate(1727.7 341.14)">Medium</text><text class="cls-6" transform="translate(2020.43 341.14)">Semibold</text><text class="cls-6" transform="translate(2331.23 341.14)">Bold</text><text class="cls-6" transform="translate(2622.52 341.14)">Heavy</text><text class="cls-6" transform="translate(2921.76 341.14)">Black</text><line class="cls-2" x1="267.26" y1="1922.14" x2="3040.26" y2="1922.14"/><path d="M276.5,1953a7.59,7.59,0,0,0,3.05-.62,8,8,0,0,0,2.52-1.71,8.39,8.39,0,0,0,1.71-2.52,7.74,7.74,0,0,0,0-6.07,8.24,8.24,0,0,0-1.72-2.52,8,8,0,0,0-2.52-1.71,7.76,7.76,0,0,0-6.08,0,7.88,7.88,0,0,0-2.51,1.71,8.39,8.39,0,0,0-1.71,2.52,7.74,7.74,0,0,0,0,6.07,8.39,8.39,0,0,0,1.71,2.52,8,8,0,0,0,2.52,1.71A7.57,7.57,0,0,0,276.5,1953Zm0-1.49A6.24,6.24,0,0,1,274,1951a6.44,6.44,0,0,1-2-1.37,6.6,6.6,0,0,1-1.37-2,6.32,6.32,0,0,1-.49-2.49,6.25,6.25,0,0,1,.49-2.49,6.33,6.33,0,0,1,1.36-2,6.44,6.44,0,0,1,2-1.37,6.57,6.57,0,0,1,5,0,6.6,6.6,0,0,1,2,1.37,6.52,6.52,0,0,1,1.37,2,6.09,6.09,0,0,1,.5,2.49,6.32,6.32,0,0,1-.49,2.49,6.6,6.6,0,0,1-1.37,2,6.37,6.37,0,0,1-2,1.37A6.26,6.26,0,0,1,276.5,1951.48Zm-3.59-6.39a.7.7,0,0,0,.21.52.73.73,0,0,0,.54.2h2.11v2.12a.76.76,0,0,0,.2.53.67.67,0,0,0,.52.21.72.72,0,0,0,.75-.74v-2.12h2.11a.72.72,0,0,0,.53-.2.7.7,0,0,0,.21-.52.72.72,0,0,0-.21-.54.69.69,0,0,0-.53-.21h-2.11v-2.11a.72.72,0,0,0-.75-.75.67.67,0,0,0-.52.21.77.77,0,0,0-.2.54v2.11h-2.11a.7.7,0,0,0-.54.21A.72.72,0,0,0,272.91,1945.09Z"/><path d="M297.83,1955.05a9.64,9.64,0,0,0,3.85-.78,10.27,10.27,0,0,0,5.33-5.34,9.87,9.87,0,0,0,0-7.69,10.18,10.18,0,0,0-5.34-5.33,9.75,9.75,0,0,0-7.69,0,10.21,10.21,0,0,0-5.33,5.33,9.87,9.87,0,0,0,0,7.69,10.18,10.18,0,0,0,2.16,3.18,10.35,10.35,0,0,0,3.18,2.16A9.55,9.55,0,0,0,297.83,1955.05Zm0-1.66a8.1,8.1,0,0,1-3.23-.65,8.34,8.34,0,0,1-4.42-4.42,8.5,8.5,0,0,1,0-6.47,8.51,8.51,0,0,1,1.77-2.64,8.39,8.39,0,0,1,2.64-1.79,8.5,8.5,0,0,1,6.47,0,8.46,8.46,0,0,1,4.43,4.43,8.5,8.5,0,0,1,0,6.47,8.25,8.25,0,0,1-4.42,4.42A8.19,8.19,0,0,1,297.83,1953.39Zm-4.53-8.3a.75.75,0,0,0,.24.57.81.81,0,0,0,.6.23H297v2.88a.85.85,0,0,0,.23.6.78.78,0,0,0,.57.23.79.79,0,0,0,.83-.83v-2.88h2.88a.81.81,0,0,0,.6-.23.74.74,0,0,0,.23-.57.79.79,0,0,0-.83-.83h-2.88v-2.88a.79.79,0,0,0-.83-.84.75.75,0,0,0-.57.24.85.85,0,0,0-.23.6v2.88h-2.87a.8.8,0,0,0-.61.23A.81.81,0,0,0,293.3,1945.09Z"/><path d="M324.87,1957.8a12.27,12.27,0,0,0,4-.65,12.75,12.75,0,0,0,3.49-1.82,13,13,0,0,0,2.77-2.76,12.57,12.57,0,0,0,1.83-3.5,12.54,12.54,0,0,0,0-8,12.51,12.51,0,0,0-1.83-3.49,12.77,12.77,0,0,0-2.77-2.77,12.51,12.51,0,0,0-3.49-1.83,12.6,12.6,0,0,0-8,0,12.59,12.59,0,0,0-3.48,1.83,13,13,0,0,0-2.77,2.77,12.75,12.75,0,0,0-1.82,3.49,12.27,12.27,0,0,0-.64,4,12.08,12.08,0,0,0,.65,4,12.9,12.9,0,0,0,8.07,8.08A12.36,12.36,0,0,0,324.87,1957.8Zm0-1.82a10.64,10.64,0,0,1-3.44-.55,10.75,10.75,0,0,1-3-1.55,10.91,10.91,0,0,1-2.37-15.24,11,11,0,0,1,5.35-3.91,11.29,11.29,0,0,1,6.9,0,10.75,10.75,0,0,1,3,1.55,10.57,10.57,0,0,1,2.36,2.36,10.76,10.76,0,0,1,2.1,6.45,10.37,10.37,0,0,1-.54,3.44,10.68,10.68,0,0,1-3.91,5.35,10.76,10.76,0,0,1-6.45,2.1Zm-5.77-10.89a.86.86,0,0,0,.26.63.92.92,0,0,0,.66.24h4v4a.92.92,0,0,0,.24.66.87.87,0,0,0,.64.26.9.9,0,0,0,.66-.26.86.86,0,0,0,.26-.66v-4h4a.92.92,0,0,0,.65-.24.85.85,0,0,0,.25-.63.9.9,0,0,0-.25-.67.88.88,0,0,0-.65-.25h-4v-4a.89.89,0,0,0-.92-.93.87.87,0,0,0-.64.26,1,1,0,0,0-.24.67v4h-4a.87.87,0,0,0-.66.25A.9.9,0,0,0,319.1,1945.09Z"/><text class="cls-3" transform="translate(267.26 1972.14)">Design <tspan class="cls-5" x="46.95" y="0">V</tspan><tspan x="54.91" y="0">ariations</tspan></text><text class="cls-6" transform="translate(267.26 1990.14)">Symbols are supported in up to nine weights and three scales.</text><text class="cls-6" transform="translate(267.26 2008.14)">For optimal layout with text and other symbols, vertically align</text><text class="cls-6" transform="translate(267.26 2026.14)">symbols with the adjacent text.</text><line class="cls-7" x1="780.26" y1="1938.14" x2="780.26" y2="1952.14"/><path d="M783.57,1952.29a1,1,0,0,0,.6-.16,1.15,1.15,0,0,0,.35-.58l1.26-3.45h5.77l1.26,3.45a1.15,1.15,0,0,0,.35.58.94.94,0,0,0,.59.16.88.88,0,0,0,.62-.21.75.75,0,0,0,.23-.59,1.47,1.47,0,0,0-.11-.53l-4.58-12.19a1.45,1.45,0,0,0-.47-.68,1.28,1.28,0,0,0-.78-.22,1.23,1.23,0,0,0-1.23.89L782.85,1951a1.68,1.68,0,0,0-.1.53.75.75,0,0,0,.22.58A.81.81,0,0,0,783.57,1952.29Zm2.69-5.67,2.38-6.57h0l2.38,6.57Z"/><line class="cls-7" x1="797.45" y1="1938.14" x2="797.45" y2="1952.14"/><text class="cls-3" transform="translate(780.26 1972.14)">Margins</text><text class="cls-6" transform="translate(780.26 1990.14)">Leading and trailing margins on the left and right side of each symbol</text><text class="cls-6" transform="translate(780.26 2008.14)">can be adjusted by modifying the x-location of the margin guidelines.</text><text class="cls-6" transform="translate(780.26 2026.14)">Modifications are automatically applied proportionally to all</text><text class="cls-6" transform="translate(780.26 2044.14)">scales and weights.</text><path d="M1296.1,1954l1.7,1.71a1.72,1.72,0,0,0,1.36.61,2.19,2.19,0,0,0,1.41-.82l10.69-11.79-1-1-10.62,11.68a.86.86,0,0,1-.53.34.75.75,0,0,1-.62-.31l-1.17-1.16c-.24-.24-.34-.44-.31-.62a1,1,0,0,1,.35-.54l11.47-10.8-1-1-11.6,10.89a2.14,2.14,0,0,0-.79,1.39A1.72,1.72,0,0,0,1296.1,1954Zm6.41-18.19a1.15,1.15,0,0,0-.35.69,1.13,1.13,0,0,0,.14.69,1.16,1.16,0,0,0,.51.41,1.44,1.44,0,0,0,.83,0,8.25,8.25,0,0,1,2.21-.21,4.17,4.17,0,0,1,2.2.74l-.58,1.46a1.83,1.83,0,0,0-.15,1.09,1.9,1.9,0,0,0,.52.87l2.29,2.31a1.29,1.29,0,0,0,.7.43,2,2,0,0,0,.77,0l1.06-.19.66.67,0,.56a1.5,1.5,0,0,0,.09.68,2,2,0,0,0,.48.68l.76.74a1.18,1.18,0,0,0,.79.38,1.06,1.06,0,0,0,.78-.34l2.91-2.92a1.08,1.08,0,0,0,.34-.77,1.14,1.14,0,0,0-.37-.77l-.77-.77a2.32,2.32,0,0,0-.66-.49,1.37,1.37,0,0,0-.67-.1l-.58,0-.64-.64.24-1.12a1.32,1.32,0,0,0,0-.79,2.39,2.39,0,0,0-.57-.8l-2.2-2.19a8.69,8.69,0,0,0-2.66-1.86,7.27,7.27,0,0,0-2.84-.64,6.68,6.68,0,0,0-2.76.52A7.45,7.45,0,0,0,1302.51,1935.81Zm1.5.37a5.89,5.89,0,0,1,2-1,5.73,5.73,0,0,1,2.1-.18,6.39,6.39,0,0,1,2.07.57,6.71,6.71,0,0,1,1.83,1.31l2.43,2.41a.76.76,0,0,1,.22.35.88.88,0,0,1,0,.42l-.32,1.48,1.51,1.48,1,0a.82.82,0,0,1,.29,0,.73.73,0,0,1,.24.18l.58.58-2.45,2.44-.57-.58a1,1,0,0,1-.19-.24,1.1,1.1,0,0,1,0-.3l.07-1-1.49-1.49-1.53.26a.82.82,0,0,1-.38,0,.74.74,0,0,1-.33-.21l-2-2a.64.64,0,0,1-.22-.34.78.78,0,0,1,.09-.43l.88-2.09a6.38,6.38,0,0,0-2.64-1.51,5.3,5.3,0,0,0-3,0c-.08,0-.13,0-.15,0S1303.94,1936.23,1304,1936.18Z"/><text class="cls-3" transform="translate(1293.26 1972.14)">Exporting</text><text class="cls-6" transform="translate(1293.26 1990.14)">Symbols should be outlined when exporting to ensure the</text><text class="cls-6" transform="translate(1293.26 2008.14)">design is preserved when submitting to Xcode.</text><text id="template-version" class="cls-6" transform="translate(2956.67 1952.14)"><tspan class="cls-8">T</tspan><tspan x="6.5" y="0">emplate </tspan><tspan class="cls-9" x="56.36" y="0">v</tspan><tspan x="61.9" y="0">.3.0</tspan></text><text class="cls-6" transform="translate(2869.71 1970.14)">Requires Xcode 13 or greater</text><text id="descriptive-name" class="cls-6" transform="translate(2885.61 1988.14)">Generated from highlighter</text><text class="cls-6" transform="translate(2916.67 2006.14)"><tspan class="cls-5">T</tspan><tspan x="7.23" y="0">ypeset at 100 points</tspan></text><text class="cls-6" transform="translate(267.26 745.14)">Small</text><text class="cls-6" transform="translate(267.26 1175.14)">Medium</text><text class="cls-6" transform="translate(267.26 1605.14)">Large</text></g><g id="Guides"><g id="H-reference"><path class="cls-10" d="M340,696h2.65l25.69-67.13h.7v-3.33h-1.91Zm10.7-24.48H386l-.75-2.25H351.44ZM394.12,696h2.64l-27.12-70.46h-1.21v3.33Z"/></g><line id="Baseline-S" class="cls-11" x1="263" y1="696" x2="3036" y2="696"/><line id="Capline-S" class="cls-11" x1="263" y1="625.54" x2="3036" y2="625.54"/><g id="H-reference-2" data-name="H-reference"><path class="cls-10" d="M340,1126h2.65l25.69-67.13h.7v-3.33h-1.91Zm10.7-24.48H386l-.75-2.25H351.44ZM394.12,1126h2.64l-27.12-70.46h-1.21v3.33Z"/></g><line id="Baseline-M" class="cls-11" x1="263" y1="1126" x2="3036" y2="1126"/><line id="Capline-M" class="cls-11" x1="263" y1="1055.54" x2="3036" y2="1055.54"/><g id="H-reference-3" data-name="H-reference"><path class="cls-10" d="M340,1556h2.65l25.69-67.13h.7v-3.33h-1.91Zm10.7-24.48H386l-.75-2.25H351.44ZM394.12,1556h2.64l-27.12-70.46h-1.21v3.33Z"/></g><line id="Baseline-L" class="cls-11" x1="263" y1="1556" x2="3036" y2="1556"/><line id="Capline-L" class="cls-11" x1="263" y1="1485.54" x2="3036" y2="1485.54"/><line id="left-margin-Regular-M" class="cls-7" x1="1386.82" y1="1030.79" x2="1386.82" y2="1150.12"/><line id="right-margin-Regular-M" class="cls-7" x1="1512.87" y1="1030.79" x2="1512.87" y2="1150.12"/></g><g id="Symbols"><g id="Black-L"><path d="M2906.35,1558.51l20.64-9a13.1,13.1,0,0,0,4.06-2.7l62.21-62.16q5-5,5-10.84t-4.85-10.71l-14.9-14.85q-4.85-4.9-10.71-4.84t-10.8,5l-62.21,62.08a11.48,11.48,0,0,0-1.57,1.91,16.7,16.7,0,0,0-1.16,2.21l-9,20.63q-3.06,6.86,1.91,11.82l9.49,9.47Q2899.48,1561.55,2906.35,1558.51Zm-2.16-15.44a2.34,2.34,0,0,1-1.21.19,1.79,1.79,0,0,1-1.07-.62l-2.92-2.9a2,2,0,0,1-.41-2.26l7.2-16.43,60.41-60.29a2.11,2.11,0,0,1,3.39,0l11.45,11.45a2.14,2.14,0,0,1,0,3.4l-60.37,60.35Zm-27.49,19.41h10.2a7.1,7.1,0,0,0,2.72-.38,9,9,0,0,0,1.84-1.16l7.67-6-11.84-11.86-13.23,13.44a3.6,3.6,0,0,0-1,3.85C2873.52,1561.77,2874.73,1562.48,2876.7,1562.48Zm17.7-42.73,29.09,29.09,9.7-9.7-29.09-29Zm53.36-53.23,29,29,9.76-9.57-29.08-29Zm-75.41,118h122.1a6.48,6.48,0,0,0,5-2.2,7.21,7.21,0,0,0,2-5,7.06,7.06,0,0,0-2-5.06,6.58,6.58,0,0,0-5-2.12h-122.1a6.58,6.58,0,0,0-5,2.14,7.11,7.11,0,0,0-2,5,7.2,7.2,0,0,0,2.06,5A6.52,6.52,0,0,0,2872.35,1584.57Z"/></g><g id="Heavy-L"><path d="M2607.91,1557.13l20.73-8.85a12.32,12.32,0,0,0,3.84-2.55l61.77-61.61q4.85-4.8,4.88-10.43t-4.75-10.36l-14.51-14.5q-4.74-4.78-10.36-4.76t-10.41,4.82l-61.79,61.53a10.44,10.44,0,0,0-1.47,1.77,14.5,14.5,0,0,0-1.12,2.1l-8.9,20.72q-2.84,6.39,1.77,11l9.32,9.31Q2601.49,1559.93,2607.91,1557.13Zm-1.89-14a2.75,2.75,0,0,1-1.31.2,1.94,1.94,0,0,1-1.19-.69l-3.29-3.28a2.14,2.14,0,0,1-.45-2.48l7.36-17,60.36-60.13q2.05-2.05,4-.06l11.91,12c1.29,1.3,1.26,2.64-.09,4L2623,1535.92Zm-26.43,17.71h9.54a6.78,6.78,0,0,0,2.56-.36,9.05,9.05,0,0,0,1.81-1.14l7.27-5.68-11.13-11.16-12.48,12.75a3.42,3.42,0,0,0-1,3.63C2576.64,1560.24,2577.77,1560.89,2579.59,1560.89Zm17.59-41.92,28.27,28.33,8.73-8.72-28.27-28.28Zm53.18-52.93,28.19,28.29,8.77-8.61-28.26-28.28Zm-74.6,117h121.86a6,6,0,0,0,4.6-2,6.61,6.61,0,0,0,1.87-4.65,6.47,6.47,0,0,0-1.87-4.65,6.09,6.09,0,0,0-4.6-2H2575.76a6.08,6.08,0,0,0-4.59,2,6.47,6.47,0,0,0-1.89,4.63,6.6,6.6,0,0,0,1.91,4.63A6.05,6.05,0,0,0,2575.76,1583Z"/></g><g id="Bold-L"><path d="M2309.23,1555.54l20.88-8.69a11.1,11.1,0,0,0,3.56-2.35l61.32-61q4.62-4.56,4.64-9.86c0-3.54-1.52-6.83-4.59-9.89L2381,1449.67q-4.56-4.62-9.87-4.63t-9.89,4.55l-61.35,60.88a11.19,11.19,0,0,0-1.36,1.61,11.59,11.59,0,0,0-1,2l-8.81,20.87q-2.57,5.77,1.58,9.93l9.05,9.06C2302,1556.65,2305.33,1557.21,2309.23,1555.54Zm-1.56-12a3.17,3.17,0,0,1-1.43.23,2.16,2.16,0,0,1-1.29-.77l-3.78-3.78a2.32,2.32,0,0,1-.5-2.71l7.58-17.69,60.37-60q2.51-2.46,4.84-.08l12.46,12.56q2.32,2.36-.14,4.83l-60.38,60Zm-25,15.54h8.7a6.22,6.22,0,0,0,2.33-.33,7.75,7.75,0,0,0,1.75-1.11l6.85-5.28-10.22-10.25L2280.51,1554a3.13,3.13,0,0,0-.89,3.33C2280,1558.47,2281,1559.06,2282.67,1559.06Zm17.38-40.92,27.3,27.42,7.48-7.46-27.28-27.39Zm53.1-52.65,27.21,27.4,7.51-7.38-27.28-27.4ZM2279,1581.08h121.87a5.37,5.37,0,0,0,4.07-1.76,5.75,5.75,0,0,0,1.66-4.09,5.69,5.69,0,0,0-1.66-4.1,5.41,5.41,0,0,0-4.07-1.72H2279a5.43,5.43,0,0,0-4.06,1.74,5.65,5.65,0,0,0-1.68,4.08,5.73,5.73,0,0,0,1.7,4.08A5.38,5.38,0,0,0,2279,1581.08Z"/></g><g id="Semibold-L"><path d="M2011.17,1554.45l21-8.59a10.15,10.15,0,0,0,3.36-2.22l61-60.52q4.49-4.39,4.48-9.47t-4.47-9.57l-13.75-13.84q-4.46-4.48-9.54-4.54t-9.53,4.37l-61,60.44a10.52,10.52,0,0,0-1.29,1.49,11.46,11.46,0,0,0-1,1.85l-8.75,21q-2.37,5.36,1.46,9.2l8.86,8.88Q2005.73,1556.73,2011.17,1554.45Zm-1.33-10.69a3.59,3.59,0,0,1-1.51.24,2.33,2.33,0,0,1-1.37-.81l-4.11-4.14a2.43,2.43,0,0,1-.53-2.86L2010,1518l60.38-59.84q2.8-2.75,5.42-.08l12.83,13q2.6,2.65-.18,5.4l-60.4,59.85Zm-24,14h8.11a5.88,5.88,0,0,0,2.19-.31,7.67,7.67,0,0,0,1.7-1.07l6.57-5-9.6-9.61-10.94,11.3a3,3,0,0,0-.85,3.12C1983.38,1557.26,1984.31,1557.79,1985.82,1557.79Zm17.24-40.23,26.63,26.81,6.62-6.61-26.6-26.77Zm53-52.44,26.54,26.79,6.64-6.55-26.6-26.79Zm-73.78,114.63h121.89a4.94,4.94,0,0,0,3.7-1.58,5.3,5.3,0,0,0,0-7.43,5,5,0,0,0-3.7-1.56H1982.32a5,5,0,0,0-3.68,1.57,5.21,5.21,0,0,0,0,7.41A4.94,4.94,0,0,0,1982.32,1579.75Z"/></g><g id="Medium-L"><path d="M1713.43,1553.62l21.07-8.51a9.39,9.39,0,0,0,3.21-2.11l60.77-60.18q4.37-4.27,4.35-9.19t-4.38-9.31l-13.52-13.65q-4.37-4.39-9.28-4.47t-9.26,4.24l-60.81,60.1a10,10,0,0,0-1.23,1.4,9.28,9.28,0,0,0-.95,1.78l-8.71,21q-2.22,5,1.37,8.64l8.71,8.75Q1708.29,1555.74,1713.43,1553.62Zm-1.15-9.68a3.81,3.81,0,0,1-1.58.25,2.37,2.37,0,0,1-1.42-.85l-4.36-4.4a2.52,2.52,0,0,1-.56-3l7.83-18.58,60.38-59.74q3-3,5.86-.09l13.12,13.28c1.86,1.9,1.79,3.85-.21,5.83l-60.42,59.75Zm-23.28,12.9h7.67a5.59,5.59,0,0,0,2.07-.3,7.39,7.39,0,0,0,1.67-1l6.35-4.83-9.13-9.13-10.47,10.85a2.82,2.82,0,0,0-.8,3Q1686.89,1556.84,1689,1556.84Zm17.13-39.71,26.12,26.33,6-6-26.09-26.3Zm53-52.3,26,26.33,6-5.91-26.08-26.32Zm-73.52,113.91h121.9a4.55,4.55,0,0,0,3.42-1.45,4.85,4.85,0,0,0,0-6.84,4.55,4.55,0,0,0-3.42-1.45H1685.6a4.64,4.64,0,0,0-3.4,1.45,4.79,4.79,0,0,0,0,6.84A4.62,4.62,0,0,0,1685.6,1578.74Z"/></g><g id="Regular-L"><path d="M1415.39,1552.54l21.17-8.41a8.84,8.84,0,0,0,3-2l60.46-59.74q4.21-4.12,4.19-8.81t-4.27-9l-13.22-13.38q-4.24-4.27-9-4.38t-8.89,4.06l-60.52,59.66a10.77,10.77,0,0,0-1.15,1.28,8.48,8.48,0,0,0-.9,1.68l-8.65,21.14q-2,4.63,1.25,7.91l8.52,8.58Q1410.65,1554.46,1415.39,1552.54Zm-.93-8.36a4,4,0,0,1-1.66.25,2.42,2.42,0,0,1-1.49-.89l-4.69-4.75a2.63,2.63,0,0,1-.59-3.13l8-19.08,60.39-59.61q3.34-3.27,6.43-.11l13.49,13.69q3.06,3.14-.24,6.4l-60.44,59.61Zm-22.3,11.41h7.09a5.41,5.41,0,0,0,1.92-.28,6.76,6.76,0,0,0,1.63-1l6.07-4.56-8.52-8.5-9.84,10.26a2.61,2.61,0,0,0-.76,2.75A2.26,2.26,0,0,0,1392.16,1555.59Zm17-39,25.45,25.72,5.12-5.1-25.41-25.69Zm52.93-52.1,25.36,25.72,5.13-5.07-25.42-25.72Zm-73.18,113h121.9a4.14,4.14,0,0,0,3.06-1.27,4.31,4.31,0,0,0,0-6.09,4.12,4.12,0,0,0-3.06-1.29H1388.9a4.33,4.33,0,0,0,0,8.65Z"/></g><g id="Light-L"><path d="M1118.52,1552.23l21.51-8.1a7.27,7.27,0,0,0,2.77-1.78l60.67-59.52q3.91-3.78,3.9-8.13t-3.92-8.34l-13.18-13.46q-3.9-3.95-8.27-4.08t-8.24,3.7L1113,1512a9.19,9.19,0,0,0-1.08,1.17,6.33,6.33,0,0,0-.78,1.51l-8.52,21.46c-1.14,2.67-.76,5,1.12,6.83l7.91,8.06Q1114.4,1553.8,1118.52,1552.23Zm-.8-6.41a3.94,3.94,0,0,1-1.61.24,2.45,2.45,0,0,1-1.33-.82l-5.2-5.36a2.47,2.47,0,0,1-.55-3l8.14-20.15,60.89-59.63c2.58-2.5,5.08-2.52,7.47-.07l13.71,14q3.54,3.69-.31,7.43L1138,1538.17Zm-20.55,9.35h6.34a4.73,4.73,0,0,0,1.72-.25,7.09,7.09,0,0,0,1.38-.85l6.26-4.59-7.67-7.44-9.43,9.58a2.25,2.25,0,0,0-.64,2.36A1.9,1.9,0,0,0,1097.17,1555.17Zm16.41-38.38,25,25.43,4-4-24.92-25.39Zm53.7-52.43,24.89,25.44,4.06-4-24.92-25.44Zm-76.11,111.78h123.94a3.19,3.19,0,0,0,2.35-1,3.24,3.24,0,0,0,1-2.33,3.31,3.31,0,0,0-3.31-3.31H1091.17a3.31,3.31,0,0,0,0,6.62Z"/></g><g id="Thin-L"><path d="M821.59,1551.83l22-7.7a5.61,5.61,0,0,0,2.45-1.53l60.94-59.21a10,10,0,0,0,3.51-7.25c0-2.6-1.15-5.09-3.45-7.49l-13.13-13.55a10.92,10.92,0,0,0-7.37-3.68,9.83,9.83,0,0,0-7.37,3.22L818,1513.77a8.44,8.44,0,0,0-1,1,4.2,4.2,0,0,0-.61,1.29L808.08,1538a4.62,4.62,0,0,0,.95,5.39l7.1,7.38A4.86,4.86,0,0,0,821.59,1551.83ZM821,1548a3.19,3.19,0,0,1-1.55.21,2.3,2.3,0,0,1-1.12-.72l-5.88-6.16a2.28,2.28,0,0,1-.5-2.73l8.37-21.56,61.54-59.67q4.59-4.36,8.87,0l14,14.48q4.2,4.43-.38,8.79l-61.55,59.67Zm-18.23,6.62h5.32a3.68,3.68,0,0,0,1.46-.21,10.08,10.08,0,0,0,1.07-.61l6.51-4.64-6.56-6-8.87,8.66a1.82,1.82,0,0,0-.5,1.86A1.45,1.45,0,0,0,802.74,1554.61Zm15.62-37.52,24.34,25.06,2.64-2.57-24.26-25Zm54.74-52.85,24.26,25,2.65-2.63-24.27-25.06Zm-80,110.21H919.74a1.86,1.86,0,0,0,1.41-.61,2,2,0,0,0-1.41-3.34H793.1a2,2,0,0,0-1.4,3.34A1.85,1.85,0,0,0,793.1,1574.45Z"/></g><g id="Ultralight-L"><path d="M524.77,1551.62l22.2-7.49a4.86,4.86,0,0,0,2.27-1.4l61.09-59.06a9.31,9.31,0,0,0,3.31-6.79,10.2,10.2,0,0,0-3.22-7.05l-13.1-13.61a10.23,10.23,0,0,0-6.91-3.46,9.2,9.2,0,0,0-6.93,3l-61.25,59a7,7,0,0,0-1,.94,3.2,3.2,0,0,0-.54,1.17l-8.25,22.11a4,4,0,0,0,.86,4.65l6.69,7A4.32,4.32,0,0,0,524.77,1551.62Zm-.53-2.52a3.09,3.09,0,0,1-1.52.2,2.36,2.36,0,0,1-1-.67l-6.24-6.57a2.18,2.18,0,0,1-.47-2.62l8.48-22.28,61.88-59.68q4.95-4.7,9.58,0l14.12,14.72q4.54,4.79-.42,9.49l-61.87,59.67Zm-17,5.23H512a3.11,3.11,0,0,0,1.32-.2l.91-.48,6.64-4.67-6-5.3-8.59,8.2a1.57,1.57,0,0,0-.41,1.6A1.22,1.22,0,0,0,507.2,1554.33Zm15.22-37.08,24,24.86,1.92-1.84-23.93-24.77Zm55.27-53.08L601.63,1489l1.92-1.93-23.93-24.86Zm-82,109.42h128a1.18,1.18,0,0,0,.92-.42,1.27,1.27,0,0,0,.37-.87,1.22,1.22,0,0,0-.37-.92,1.24,1.24,0,0,0-.92-.37h-128a1.26,1.26,0,0,0-1.29,1.29,1.27,1.27,0,0,0,.37.87A1.16,1.16,0,0,0,495.7,1573.59Z"/></g><g id="Black-M"><path d="M2913.92,1121.15l15.95-7a10.82,10.82,0,0,0,3.3-2.2l48.6-48.6a12.3,12.3,0,0,0,4-8.67,11.49,11.49,0,0,0-3.8-8.5l-11.88-11.82a11.42,11.42,0,0,0-8.51-3.78,12.33,12.33,0,0,0-8.61,4l-48.6,48.54a9,9,0,0,0-1.28,1.58,16.27,16.27,0,0,0-.93,1.78l-7,16q-2.51,5.63,1.58,9.71l7.42,7.41Q2908.29,1123.65,2913.92,1121.15Zm-1.91-13a1.47,1.47,0,0,1-.82.13,1.27,1.27,0,0,1-.72-.41l-2-2a1.33,1.33,0,0,1-.27-1.53l5.46-12.43,46.91-46.85a1.4,1.4,0,0,1,2.24,0l8.5,8.5a1.4,1.4,0,0,1,0,2.24l-46.85,46.91Zm-22,16.21h8.37a5.63,5.63,0,0,0,2.23-.31,8,8,0,0,0,1.41-.88l6.31-5-9.66-9.63-10.85,10.9a3,3,0,0,0-.8,3.14C2887.43,1123.8,2888.43,1124.39,2890.05,1124.39Zm13.73-33.72,23.17,23.17,8.21-8.22-23.17-23.1Zm41.6-41.53,23.1,23.1,8.27-8.09L2953.58,1041Zm-59.52,92.23h95.08a5.32,5.32,0,0,0,4.11-1.83,6,6,0,0,0,1.65-4.16,5.87,5.87,0,0,0-1.65-4.18,5.45,5.45,0,0,0-4.11-1.74h-95.08a5.38,5.38,0,0,0-4.1,1.77,5.85,5.85,0,0,0-1.66,4.15,6,6,0,0,0,1.69,4.13A5.29,5.29,0,0,0,2885.86,1141.37Z"/></g><g id="Heavy-M"><path d="M2615.52,1119.83l16-6.9a10.06,10.06,0,0,0,3.11-2.07l48.16-48.09a11.68,11.68,0,0,0,3.87-8.32,11.23,11.23,0,0,0-3.73-8.23l-11.5-11.46a11.16,11.16,0,0,0-8.22-3.73,11.74,11.74,0,0,0-8.3,3.84l-48.16,48a9,9,0,0,0-1.19,1.46,13.14,13.14,0,0,0-.9,1.69l-6.92,16q-2.33,5.22,1.45,9l7.31,7.3Q2610.27,1122.14,2615.52,1119.83Zm-1.64-11.7a1.82,1.82,0,0,1-.94.15,1.49,1.49,0,0,1-.84-.48l-2.33-2.33a1.51,1.51,0,0,1-.32-1.76l5.61-12.84,46.81-46.69a1.71,1.71,0,0,1,2.75,0l8.93,8.95a1.73,1.73,0,0,1,0,2.75l-46.79,46.74Zm-21.09,14.75h7.79a5.5,5.5,0,0,0,2.08-.29,7.31,7.31,0,0,0,1.41-.89l5.91-4.63-9.06-9.06-10.14,10.3a2.77,2.77,0,0,0-.77,3C2590.36,1122.34,2591.29,1122.88,2592.79,1122.88Zm13.67-33,22.42,22.44,7.35-7.35-22.41-22.39Zm41.35-41.21,22.36,22.39,7.4-7.25-22.42-22.39ZM2589.36,1140H2684a5,5,0,0,0,3.79-1.67,5.5,5.5,0,0,0,1.53-3.83,5.39,5.39,0,0,0-1.53-3.85A5.06,5.06,0,0,0,2684,1129h-94.66a5,5,0,0,0-3.79,1.63,5.47,5.47,0,0,0,0,7.64A4.92,4.92,0,0,0,2589.36,1140Z"/></g><g id="Bold-M"><path d="M2316.93,1118.35l16.08-6.83a9,9,0,0,0,2.89-1.92l47.66-47.5a11.11,11.11,0,0,0,3.72-7.94,11,11,0,0,0-3.66-7.92l-11.07-11.07a11,11,0,0,0-7.91-3.67,11.12,11.12,0,0,0-7.94,3.67L2309,1082.61a8.93,8.93,0,0,0-1.1,1.32,11.1,11.1,0,0,0-.86,1.6l-6.87,16.07q-2.13,4.79,1.31,8.23l7.19,7.17Q2312.1,1120.45,2316.93,1118.35Zm-1.35-10.27a2.49,2.49,0,0,1-1.07.17,1.68,1.68,0,0,1-1-.58l-2.68-2.67a1.72,1.72,0,0,1-.37-2l5.77-13.3,46.7-46.52q1.71-1.7,3.32-.06l9.42,9.46a2.08,2.08,0,0,1-.09,3.3l-46.7,46.55Zm-20.12,13.11h7.15a5.05,5.05,0,0,0,1.91-.27,6.25,6.25,0,0,0,1.41-.9l5.45-4.24-8.37-8.41-9.36,9.62a2.57,2.57,0,0,0-.72,2.74C2293.25,1120.7,2294.1,1121.19,2295.46,1121.19Zm13.61-32.17,21.58,21.63,6.4-6.39-21.57-21.59Zm41.08-40.85,21.52,21.6,6.42-6.31-21.57-21.6Zm-57.27,90.21h94.19a4.56,4.56,0,0,0,3.44-1.49,4.92,4.92,0,0,0,1.4-3.47,4.85,4.85,0,0,0-1.4-3.47,4.59,4.59,0,0,0-3.44-1.45h-94.19a4.56,4.56,0,0,0-3.42,1.47,4.79,4.79,0,0,0-1.42,3.45,4.89,4.89,0,0,0,1.43,3.46A4.55,4.55,0,0,0,2292.88,1138.38Z"/></g><g id="Semibold-M"><path d="M2018.93,1117.33l16.12-6.77a8.52,8.52,0,0,0,2.74-1.82l47.32-47.11a10.65,10.65,0,0,0,3.61-7.67,10.79,10.79,0,0,0-3.6-7.7l-10.78-10.8a10.84,10.84,0,0,0-7.7-3.64,10.7,10.7,0,0,0-7.69,3.56l-47.33,47a8,8,0,0,0-1,1.23,9.89,9.89,0,0,0-.83,1.52l-6.84,16.12q-2,4.47,1.22,7.69l7.1,7.09Q2014.4,1119.28,2018.93,1117.33Zm-1.15-9.29a2.75,2.75,0,0,1-1.16.18,1.77,1.77,0,0,1-1.08-.63l-2.92-2.91a1.89,1.89,0,0,1-.41-2.21l5.88-13.62,46.64-46.39c1.28-1.26,2.51-1.29,3.7-.07l9.75,9.8c1.18,1.2,1.15,2.43-.11,3.69l-46.65,46.41Zm-19.45,12h6.7a4.92,4.92,0,0,0,1.81-.26,6.21,6.21,0,0,0,1.4-.89l5.14-4-7.9-8-8.82,9.16a2.44,2.44,0,0,0-.7,2.59Q1996.43,1120,1998.33,1120Zm13.57-31.6,21,21.07,5.74-5.73-21-21Zm40.89-40.61,20.93,21,5.76-5.66-21-21Zm-56.45,89.48h93.85a4.24,4.24,0,0,0,3.2-1.36,4.48,4.48,0,0,0,1.31-3.22,4.42,4.42,0,0,0-1.31-3.21,4.27,4.27,0,0,0-3.2-1.35h-93.85a4.26,4.26,0,0,0-3.18,1.36,4.41,4.41,0,0,0-1.33,3.2,4.48,4.48,0,0,0,1.34,3.21A4.28,4.28,0,0,0,1996.34,1137.29Z"/></g><g id="Medium-M"><path d="M1718.49,1078.82l25.11,26.49-5.15,4.88-25.11-26.49Z"/><path d="M1757.43,1041.91l25.11,26.49-5,4.69-25.11-26.48Z"/><path d="M1701.59,1129.68a4,4,0,0,1-2.91-1.24l-5.88-6.2a4,4,0,0,1-.59-4.7l12.14-21.78a9.86,9.86,0,0,1,2.27-11.19l55.62-52.73a9.77,9.77,0,0,1,13.8.23h0l17.32,18.27a9.76,9.76,0,0,1-.51,13.79l-55.62,52.73a9.87,9.87,0,0,1-11.32,1.66l-22.6,10.77A3.89,3.89,0,0,1,1701.59,1129.68Zm-1-10.82,1.86,2,22.11-10.54a4,4,0,0,1,4.63.85,1.77,1.77,0,0,0,2.49-.07l55.63-52.73a1.78,1.78,0,0,0,.21-2.49l-17.32-18.27a1.78,1.78,0,0,0-2.5.08l-55.62,52.73a1.77,1.77,0,0,0-.21,2.49,4,4,0,0,1,.59,4.69Z"/></g><g id="Regular-M"><path d="M1423.25,1115.55l16.2-6.68a7.51,7.51,0,0,0,2.48-1.64l46.72-46.41q3.43-3.37,3.42-7.2c0-2.56-1.19-5-3.52-7.34L1478.3,1036q-3.49-3.49-7.32-3.57t-7.27,3.35L1417,1082.09a7.93,7.93,0,0,0-.93,1.06,7.55,7.55,0,0,0-.77,1.4l-6.78,16.19q-1.76,4,1,6.75l7,6.94Q1419.22,1117.23,1423.25,1115.55Zm-.8-7.58a3.19,3.19,0,0,1-1.32.21,2,2,0,0,1-1.25-.74l-3.33-3.33a2.12,2.12,0,0,1-.48-2.52l6.08-14.17,46.5-46.18q2.3-2.27,4.38-.1l10.34,10.4q2.07,2.12-.16,4.37l-46.56,46.18Zm-18.28,10h5.93a4.41,4.41,0,0,0,1.6-.23,5.44,5.44,0,0,0,1.4-.9l4.59-3.51-7.08-7.19-7.86,8.34a2.23,2.23,0,0,0-.66,2.34A2,2,0,0,0,1404.17,1118Zm13.5-30.6,20,20.09,4.58-4.57-20-20.08Zm40.56-40.18,19.92,20.09,4.58-4.53-20-20.09Zm-55,88.19h93.27a3.93,3.93,0,0,0,0-7.85h-93.27a3.93,3.93,0,0,0,0,7.85Z"/></g><g id="Light-M"><path d="M1126.39,1115.28l16.51-6.41a6.41,6.41,0,0,0,2.26-1.47l46.9-46.21a9.05,9.05,0,0,0,3.16-6.6,9.66,9.66,0,0,0-3.2-6.75l-10.22-10.39a9.79,9.79,0,0,0-6.71-3.3,9.06,9.06,0,0,0-6.68,3l-47,46.14a7.87,7.87,0,0,0-.86,1,5.44,5.44,0,0,0-.67,1.25l-6.66,16.48a4.82,4.82,0,0,0,.93,5.77l6.41,6.48Q1122.92,1116.66,1126.39,1115.28Zm-.68-5.84a3,3,0,0,1-1.27.19,1.87,1.87,0,0,1-1.1-.67l-3.8-3.87a2,2,0,0,1-.45-2.37l6.23-15.13,47-46.2q2.77-2.69,5.32-.07l10.53,10.72q2.52,2.61-.21,5.29l-47,46.2Zm-16.71,8.17h5.25a3.76,3.76,0,0,0,1.42-.21,5.54,5.54,0,0,0,1.19-.73l4.76-3.55-6.32-6.24-7.49,7.73a1.92,1.92,0,0,0-.56,2A1.65,1.65,0,0,0,1109,1117.61Zm13-30,19.55,19.84,3.63-3.6-19.53-19.8Zm41.26-40.47,19.49,19.84,3.62-3.59-19.53-19.84Zm-57.66,87.13h95.11a2.88,2.88,0,0,0,2.14-.89,3,3,0,0,0,0-4.25,2.89,2.89,0,0,0-2.14-.9h-95.11a3,3,0,0,0,0,6Z"/></g><g id="Thin-M"><path d="M829.48,1114.92l16.92-6.05a4.67,4.67,0,0,0,2-1.24l47.16-45.94a8,8,0,0,0,2.8-5.81,8.56,8.56,0,0,0-2.77-6l-10.18-10.49a8.72,8.72,0,0,0-5.91-2.93,7.92,7.92,0,0,0-5.9,2.6L826.3,1085a7.2,7.2,0,0,0-.79.82,3.94,3.94,0,0,0-.51,1l-6.5,16.86a3.81,3.81,0,0,0,.77,4.49L825,1114A4,4,0,0,0,829.48,1114.92Zm-.52-3.53a2.79,2.79,0,0,1-1.21.17,1.85,1.85,0,0,1-.91-.58l-4.41-4.6a1.8,1.8,0,0,1-.4-2.17l6.43-16.39L876,1041.6q3.4-3.25,6.57,0l10.77,11.13c2.08,2.17,2,4.35-.28,6.51l-47.55,46.22Zm-14.62,5.72h4.34a3.15,3.15,0,0,0,1.19-.17,7.89,7.89,0,0,0,.9-.52l5-3.59-5.32-5-7,6.92a1.5,1.5,0,0,0-.41,1.55A1.22,1.22,0,0,0,814.34,1117.11Zm12.27-29.26,19,19.5L848,1105,829,1085.6ZM868.8,1047l18.93,19.49,2.35-2.34-18.94-19.49Zm-61.14,85.73h97.53a1.71,1.71,0,0,0,1.29-.56,1.8,1.8,0,0,0,0-2.55,1.72,1.72,0,0,0-1.29-.53H807.66a1.75,1.75,0,0,0-1.29.53,1.8,1.8,0,0,0,0,2.55A1.74,1.74,0,0,0,807.66,1132.73Z"/></g><g id="Ultralight-M"><path d="M532.67,1114.73l17.13-5.86a3.87,3.87,0,0,0,1.81-1.13l47.29-45.8a7.37,7.37,0,0,0,2.62-5.4A8.06,8.06,0,0,0,599,1051l-10.16-10.53a8.16,8.16,0,0,0-5.5-2.75,7.3,7.3,0,0,0-5.49,2.38l-47.41,45.74a6.54,6.54,0,0,0-.75.75,2.85,2.85,0,0,0-.44.94l-6.42,17.06a3.28,3.28,0,0,0,.69,3.82l5.31,5.56A3.49,3.49,0,0,0,532.67,1114.73Zm-.44-2.34a2.52,2.52,0,0,1-1.18.15,1.84,1.84,0,0,1-.81-.53l-4.73-5a1.72,1.72,0,0,1-.37-2.06l6.54-17,47.84-46.23q3.72-3.54,7.2,0l10.9,11.33q3.42,3.6-.31,7.15l-47.84,46.23Zm-13.55,4.46h3.88a2.66,2.66,0,0,0,1.06-.15c.21-.11.46-.24.75-.41l5.11-3.61-4.82-4.33-6.74,6.5a1.3,1.3,0,0,0-.34,1.32A1,1,0,0,0,518.68,1116.85ZM530.59,1088l18.7,19.32,1.71-1.64-18.64-19.26Zm42.66-41,18.64,19.32,1.71-1.7L575,1045.24Zm-62.92,85H609.1a1.12,1.12,0,0,0,.85-.38,1.16,1.16,0,0,0,.35-.82,1.14,1.14,0,0,0-.35-.86,1.17,1.17,0,0,0-.85-.35H510.33a1.2,1.2,0,0,0-1.21,1.21,1.21,1.21,0,0,0,.35.82A1.13,1.13,0,0,0,510.33,1132Z"/></g><g id="Black-S"><path d="M2918.63,685l12.5-5.46a8.77,8.77,0,0,0,2.64-1.76L2972,639.51a9.76,9.76,0,0,0,3.18-6.86,9.05,9.05,0,0,0-3-6.72l-9.43-9.37a8.92,8.92,0,0,0-6.71-3,9.74,9.74,0,0,0-6.81,3.15L2911,654.94a6.46,6.46,0,0,0-1,1.27,11.57,11.57,0,0,0-.73,1.41l-5.47,12.5q-2,4.5,1.27,7.76l5.81,5.82Q2914.14,687,2918.63,685Zm-1.56-10.44a1.06,1.06,0,0,1-.61.09,1,1,0,0,1-.51-.29l-1.52-1.51a1,1,0,0,1-.19-1.13l4.25-9.66,36.81-36.77a1,1,0,0,1,1.66,0l6.55,6.54a1,1,0,0,1,0,1.66l-36.77,36.82Zm-17.38,13h6.69a4.63,4.63,0,0,0,1.78-.24,6.1,6.1,0,0,0,1.1-.69l5.08-4-7.72-7.66-8.69,8.69a2.32,2.32,0,0,0-.64,2.49Q2897.74,687.55,2899.69,687.55Zm10.74-26.61,18.36,18.36,6.64-6.64-18.36-18.31Zm32.71-32.66,18.32,18.31,6.68-6.55-18.35-18.31ZM2896,700.79h74.75a4.22,4.22,0,0,0,3.27-1.47,4.83,4.83,0,0,0,1.32-3.32,4.67,4.67,0,0,0-1.32-3.34,4.33,4.33,0,0,0-3.27-1.4H2896a4.31,4.31,0,0,0-3.28,1.42,4.74,4.74,0,0,0-1.31,3.32,4.82,4.82,0,0,0,1.34,3.3A4.22,4.22,0,0,0,2896,700.79Z"/></g><g id="Heavy-S"><path d="M2620.5,683.87l12.51-5.45a8,8,0,0,0,2.5-1.66l37.83-37.82a9.35,9.35,0,0,0,3.09-6.64,8.93,8.93,0,0,0-3-6.55l-9.1-9.07a8.89,8.89,0,0,0-6.56-2.94,9.35,9.35,0,0,0-6.61,3.06l-37.83,37.77a7.06,7.06,0,0,0-1,1.17,11.41,11.41,0,0,0-.72,1.36l-5.44,12.51q-1.89,4.23,1.17,7.3l5.79,5.77Q2616.27,685.74,2620.5,683.87Zm-1.35-9.58a1.46,1.46,0,0,1-.72.11,1.13,1.13,0,0,1-.64-.37l-1.72-1.71a1.17,1.17,0,0,1-.24-1.34l4.35-9.9,36.68-36.63a1.23,1.23,0,0,1,2,0l6.89,6.89a1.23,1.23,0,0,1,0,2L2629.05,670Zm-16.84,12h6.28a4.49,4.49,0,0,0,1.68-.23,6.18,6.18,0,0,0,1.12-.71l4.71-3.71-7.29-7.29-8.14,8.25a2.23,2.23,0,0,0-.61,2.38C2600.34,685.87,2601.09,686.31,2602.31,686.31Zm10.76-26.06L2630.84,678l6-6-17.77-17.73Zm32.42-32.35,17.72,17.73,6.07-5.94L2651.5,622Zm-45.88,71.82h74.16a4,4,0,0,0,3.09-1.36,4.48,4.48,0,0,0,1.24-3.12,4.4,4.4,0,0,0-1.24-3.14,4.13,4.13,0,0,0-3.09-1.31h-74.16a4.06,4.06,0,0,0-3.08,1.33,4.39,4.39,0,0,0-1.25,3.12,4.47,4.47,0,0,0,1.27,3.11A4,4,0,0,0,2599.61,699.72Z"/></g><g id="Bold-S"><path d="M2322.21,682.65l12.52-5.42a7.62,7.62,0,0,0,2.35-1.57l37.37-37.35a8.9,8.9,0,0,0,3-6.4,8.8,8.8,0,0,0-2.94-6.37l-8.74-8.71a8.83,8.83,0,0,0-6.37-3,9,9,0,0,0-6.4,3l-37.37,37.3a6.51,6.51,0,0,0-.89,1.08,9.48,9.48,0,0,0-.7,1.29l-5.42,12.53q-1.76,3.93,1.07,6.76l5.77,5.74Q2318.26,684.37,2322.21,682.65Zm-1.13-8.62a1.76,1.76,0,0,1-.83.13,1.23,1.23,0,0,1-.78-.45l-1.95-1.93a1.36,1.36,0,0,1-.29-1.59L2321.7,660l36.52-36.48a1.45,1.45,0,0,1,2.32,0l7.27,7.28a1.45,1.45,0,0,1,0,2.32l-36.52,36.5Zm-16.23,10.89h5.83a4.37,4.37,0,0,0,1.57-.22,4.93,4.93,0,0,0,1.14-.74l4.3-3.37-6.81-6.88-7.52,7.76a2.11,2.11,0,0,0-.6,2.25C2303,684.52,2303.73,684.92,2304.85,684.92Zm10.79-25.44,17.11,17.11,5.35-5.35L2321,654.15Zm32.08-32,17.07,17.09,5.37-5.27L2353,622.2Zm-44.48,71.07h73.48a3.84,3.84,0,0,0,2.89-1.25,4.19,4.19,0,0,0,0-5.81,3.88,3.88,0,0,0-2.89-1.22h-73.48a3.82,3.82,0,0,0-2.87,1.24,4.12,4.12,0,0,0,0,5.78A3.81,3.81,0,0,0,2303.24,698.54Z"/></g><g id="Semibold-S"><path d="M2024.4,681.8l12.53-5.4a7.37,7.37,0,0,0,2.24-1.49l37.07-37a8.64,8.64,0,0,0,2.92-6.22,8.73,8.73,0,0,0-2.93-6.25l-8.49-8.48a8.15,8.15,0,0,0-12.49,0l-37.07,37a6.75,6.75,0,0,0-.84,1,7.89,7.89,0,0,0-.68,1.25l-5.41,12.54a5.25,5.25,0,0,0,1,6.39l5.74,5.71C2019.76,682.55,2021.89,682.89,2024.4,681.8Zm-1-7.95a2.15,2.15,0,0,1-.91.15,1.36,1.36,0,0,1-.88-.51l-2.12-2.08a1.51,1.51,0,0,1-.33-1.76l4.55-10.33L2060.17,623a1.59,1.59,0,0,1,2.56-.07l7.54,7.55a1.61,1.61,0,0,1-.07,2.56l-36.43,36.38ZM2007.62,684h5.52a4,4,0,0,0,1.48-.21,5.34,5.34,0,0,0,1.17-.75l4-3.14-6.48-6.6-7.09,7.42a2,2,0,0,0-.59,2.16A1.84,1.84,0,0,0,2007.62,684Zm10.81-25,16.66,16.66,4.87-4.87-16.66-16.65Zm31.85-31.76,16.61,16.64,4.89-4.81-16.66-16.64Zm-43.53,70.54h73a3.68,3.68,0,0,0,2.74-1.16,3.88,3.88,0,0,0,1.11-2.76,3.81,3.81,0,0,0-1.11-2.74,3.64,3.64,0,0,0-2.74-1.16h-73a3.68,3.68,0,0,0-2.72,1.16,3.89,3.89,0,0,0,0,5.49A3.67,3.67,0,0,0,2006.75,697.72Z"/></g><g id="Medium-S"><path d="M1726.86,681.16l12.54-5.39a6.76,6.76,0,0,0,2.15-1.44l36.83-36.79a8.45,8.45,0,0,0,2.88-6.1,8.68,8.68,0,0,0-2.92-6.15L1770,617a8.78,8.78,0,0,0-6.16-2.94,8.53,8.53,0,0,0-6.13,2.85l-36.83,36.74a7.34,7.34,0,0,0-.8,1,8.74,8.74,0,0,0-.68,1.22l-5.39,12.54a5,5,0,0,0,1,6.12l5.73,5.69Q1723.25,682.72,1726.86,681.16Zm-.85-7.45a2.23,2.23,0,0,1-1,.16,1.47,1.47,0,0,1-1-.55l-2.23-2.2a1.58,1.58,0,0,1-.36-1.88l4.61-10.47,36.34-36.28a1.69,1.69,0,0,1,2.74-.08l7.74,7.74a1.73,1.73,0,0,1-.08,2.74l-36.37,36.3Zm-15.5,9.52h5.29a3.83,3.83,0,0,0,1.42-.21,4.27,4.27,0,0,0,1.18-.76l3.8-3-6.23-6.39-6.77,7.17a2,2,0,0,0-.58,2.09C1708.87,682.88,1709.5,683.23,1710.51,683.23Zm10.83-24.69,16.31,16.32,4.52-4.52L1725.85,654ZM1753,627l16.27,16.31,4.53-4.46-16.32-16.31Zm-42.8,70.15h72.68a3.56,3.56,0,0,0,2.63-1.1,3.75,3.75,0,0,0,0-5.27,3.54,3.54,0,0,0-2.63-1.11h-72.68a3.54,3.54,0,0,0-2.61,1.12,3.69,3.69,0,0,0,0,5.25A3.53,3.53,0,0,0,1710.21,697.1Z"/></g><g id="Regular-S"><path d="M1429.06,680.33l12.55-5.37a6.63,6.63,0,0,0,2.05-1.37l36.53-36.48a8.17,8.17,0,0,0,2.8-5.93,8.59,8.59,0,0,0-2.9-6l-8.06-8.06a8.76,8.76,0,0,0-6-2.93,8.24,8.24,0,0,0-6,2.79l-36.52,36.42a7.32,7.32,0,0,0-.76.88,7.86,7.86,0,0,0-.66,1.17L1416.71,668a4.72,4.72,0,0,0,.88,5.76l5.71,5.67Q1425.64,681.79,1429.06,680.33Zm-.68-6.79a2.63,2.63,0,0,1-1.05.17,1.62,1.62,0,0,1-1-.61l-2.39-2.34a1.72,1.72,0,0,1-.39-2l4.68-10.65,36.23-36.18c1-1,2-1.08,3-.1l8,8c.95.94.91,1.94-.1,3L1439,669Zm-15.09,8.74h5a3.78,3.78,0,0,0,1.34-.2,4.15,4.15,0,0,0,1.2-.78l3.52-2.73-5.91-6.11-6.35,6.84a1.89,1.89,0,0,0-.56,2A1.67,1.67,0,0,0,1413.29,682.28ZM1424.13,658,1440,673.88l4-4L1428.18,654Zm31.45-31.35,15.82,15.87,4-4-15.87-15.87Zm-41.85,69.63H1486a3.51,3.51,0,0,0,2.49-6,3.37,3.37,0,0,0-2.49-1h-72.22a3.51,3.51,0,0,0-2.46,6A3.42,3.42,0,0,0,1413.73,696.29Z"/></g><g id="Light-S"><path d="M1132.23,680.08l12.82-5.12a5.52,5.52,0,0,0,1.86-1.22l36.69-36.29a7.48,7.48,0,0,0,2.57-5.41,7.93,7.93,0,0,0-2.62-5.51l-8-8.12a8,8,0,0,0-5.49-2.69,7.43,7.43,0,0,0-5.46,2.5l-36.72,36.24a6.91,6.91,0,0,0-.71.79,5.67,5.67,0,0,0-.56,1l-5.26,12.8a4.06,4.06,0,0,0,.77,4.9l5.23,5.26A4.13,4.13,0,0,0,1132.23,680.08Zm-.58-5.24a2.55,2.55,0,0,1-1,.16,1.55,1.55,0,0,1-.92-.55l-2.8-2.83a1.61,1.61,0,0,1-.36-1.92l4.82-11.49L1168,622q2-1.95,3.81-.07l8.17,8.28c1.21,1.23,1.16,2.5-.14,3.79l-36.66,36.2ZM1118,682h4.37a3.17,3.17,0,0,0,1.19-.18,4.19,4.19,0,0,0,1-.63l3.66-2.77-5.24-5.25-6,6.29a1.63,1.63,0,0,0-.48,1.7A1.41,1.41,0,0,0,1118,682Zm10.37-23.76,15.49,15.65,3.21-3.19L1131.55,655Zm32.07-31.6,15.44,15.64,3.2-3.17-15.47-15.64Zm-44.18,68.69h73.84a2.71,2.71,0,0,0,1.92-4.62,2.59,2.59,0,0,0-1.92-.81h-73.84a2.75,2.75,0,0,0-2.71,2.72,2.58,2.58,0,0,0,.8,1.91A2.65,2.65,0,0,0,1116.22,695.28Z"/></g><g id="Thin-S"><path d="M835.35,679.76l13.18-4.8a4,4,0,0,0,1.59-1L887,637.89a6.47,6.47,0,0,0,2.27-4.71,7,7,0,0,0-2.26-4.83l-8-8.2a7,7,0,0,0-4.78-2.36,6.38,6.38,0,0,0-4.77,2.11l-37,36a5.26,5.26,0,0,0-.63.67,3.26,3.26,0,0,0-.43.86l-5.13,13.14a3.17,3.17,0,0,0,.64,3.76l4.58,4.72A3.31,3.31,0,0,0,835.35,679.76Zm-.44-3.2a2.18,2.18,0,0,1-1,.14,1.43,1.43,0,0,1-.75-.47l-3.35-3.47a1.46,1.46,0,0,1-.32-1.73l5-12.62,37.14-36.21q2.55-2.44,4.92,0l8.39,8.64c1.55,1.62,1.49,3.25-.2,4.88L847.63,671.9Zm-11.85,5h3.57a2.36,2.36,0,0,0,1-.15,4.25,4.25,0,0,0,.76-.44l3.87-2.81L827.87,674l-5.58,5.57a1.26,1.26,0,0,0-.35,1.3A1,1,0,0,0,823.06,681.51Zm9.75-23.08,15,15.35,2.08-2-15-15.31Zm32.88-31.94,14.94,15.34,2.09-2.07-15-15.34Zm-47.26,67.45h76a1.57,1.57,0,0,0,1.17-.5,1.65,1.65,0,0,0-1.17-2.81h-76a1.6,1.6,0,0,0-1.16.49,1.66,1.66,0,0,0,1.16,2.82Z"/></g><g id="Ultralight-S"><path d="M538.55,679.6,551.92,675a3.4,3.4,0,0,0,1.46-.92l37-35.93a6,6,0,0,0,2.1-4.34,6.49,6.49,0,0,0-2.06-4.49l-8-8.24a6.52,6.52,0,0,0-4.42-2.2,5.89,5.89,0,0,0-4.41,1.92l-37.12,35.88a4.59,4.59,0,0,0-.59.61,2.44,2.44,0,0,0-.37.76l-5,13.32a2.72,2.72,0,0,0,.56,3.18l4.26,4.43A2.88,2.88,0,0,0,538.55,679.6Zm-.37-2.16a1.94,1.94,0,0,1-.93.13,1.48,1.48,0,0,1-.67-.43l-3.62-3.8a1.37,1.37,0,0,1-.3-1.64l5.1-13.19,37.41-36.22q2.83-2.7,5.48,0l8.51,8.83q2.6,2.73-.24,5.43l-37.41,36.22Zm-10.91,3.84h3.17a2,2,0,0,0,.86-.13,5.36,5.36,0,0,0,.63-.35l4-2.82L532,674.42l-5.35,5.2a1.08,1.08,0,0,0-.29,1.09A.85.85,0,0,0,527.27,681.28Zm9.44-22.72,14.73,15.18,1.51-1.46-14.69-15.14ZM570,626.44l14.69,15.19,1.51-1.51-14.69-15.19Zm-48.84,66.81h77.08a1,1,0,0,0,.79-.34,1.13,1.13,0,0,0,.32-.77,1.11,1.11,0,0,0-1.11-1.11H521.17a1.13,1.13,0,0,0-1.11,1.11,1.09,1.09,0,0,0,.33.77A1,1,0,0,0,521.17,693.25Z"/></g></g></svg>